<svg xmlns="http://www.w3.org/2000/svg" width="320" height="240" viewBox="0 0 320 240" role="img" aria-labelledby="title">
  <title>임시 선생님 프로필 이미지</title>
  <rect width="320" height="240" rx="16" fill="#f7fbfa"/>
  <circle cx="160" cy="112" r="72" fill="#e4f5f3"/>
  <path d="M113 207c7-41 25-62 47-62s40 21 47 62" fill="#f2a51f"/>
  <circle cx="160" cy="92" r="37" fill="#fff4df" stroke="#173b75" stroke-width="5"/>
  <path d="M119 86c8-31 30-47 62-38 17 5 27 19 29 38-25-12-52-11-91 0Z" fill="#77bfd3" stroke="#173b75" stroke-width="5" stroke-linejoin="round"/>
  <path d="M144 96h.2M176 96h.2M146 113c9 7 20 7 29 0" fill="none" stroke="#173b75" stroke-width="5" stroke-linecap="round"/>
  <path d="M226 53c0-19 16-32 38-29 17 2 28 13 28 27 0 8-5 13-13 13h-8c-7 0-10 5-8 12 2 11-7 19-18 16-12-3-19-18-19-39Z" fill="#fff" stroke="#173b75" stroke-width="5" stroke-linejoin="round"/>
  <circle cx="248" cy="45" r="5" fill="#77bfd3"/><circle cx="266" cy="42" r="5" fill="#f2c85b"/><circle cx="278" cy="54" r="5" fill="#d85253"/>
</svg>
