<svg xmlns="http://www.w3.org/2000/svg" width="320" height="240" viewBox="0 0 320 240" role="img" aria-labelledby="title">
  <title>임시 선생님 프로필 이미지</title>
  <rect width="320" height="240" rx="16" fill="#f7fbfa"/>
  <circle cx="160" cy="112" r="72" fill="#e4f5f3"/>
  <path d="M113 207c7-41 25-62 47-62s40 21 47 62" fill="#1d86b7"/>
  <circle cx="160" cy="92" r="37" fill="#fff4df" stroke="#173b75" stroke-width="5"/>
  <path d="M120 84c8-30 30-44 61-35 16 5 27 19 29 38-26-12-52-11-90-3Z" fill="#f2c85b" stroke="#173b75" stroke-width="5" stroke-linejoin="round"/>
  <path d="M144 96h.2M176 96h.2M146 113c9 7 20 7 29 0" fill="none" stroke="#173b75" stroke-width="5" stroke-linecap="round"/>
  <path d="M230 23h48l12 12v67h-60z" fill="#fff" stroke="#173b75" stroke-width="5" stroke-linejoin="round"/>
  <path d="M278 23v14h12M242 52l8 8 18-21M242 77l8 8 18-21" fill="none" stroke="#0b817f" stroke-width="5" stroke-linecap="round" stroke-linejoin="round"/>
</svg>
