<svg xmlns="http://www.w3.org/2000/svg" width="320" height="240" viewBox="0 0 320 240" role="img" aria-labelledby="title">
  <title>임시 선생님 프로필 이미지</title>
  <rect width="320" height="240" rx="16" fill="#f7fbfa"/>
  <circle cx="160" cy="112" r="72" fill="#e4f5f3"/>
  <path d="M113 207c7-41 25-62 47-62s40 21 47 62" fill="#1d86b7"/>
  <circle cx="160" cy="92" r="37" fill="#fff4df" stroke="#173b75" stroke-width="5"/>
  <path d="M120 84c9-30 30-43 61-34 16 5 27 18 29 36-24-11-51-10-90-2Z" fill="#77bfd3" stroke="#173b75" stroke-width="5" stroke-linejoin="round"/>
  <path d="M144 96h.2M176 96h.2M146 113c9 7 20 7 29 0" fill="none" stroke="#173b75" stroke-width="5" stroke-linecap="round"/>
  <path d="M226 48h47M235 28h17l10 20h-37l10-20ZM265 28h15v20h-28l13-20Z" fill="#fff" stroke="#173b75" stroke-width="5" stroke-linejoin="round"/>
  <path d="M223 76c9-8 18-8 27 0" fill="none" stroke="#0b817f" stroke-width="5" stroke-linecap="round"/>
</svg>
